<?xml version="1.0" standalone="yes"?>
<svg version="1.1" xmlns="http://www.w3.org/2000/svg" xmlns:xlink="http://www.w3.org/1999/xlink" xmlns:ev="http://www.w3.org/2001/xml-events" width="174" height="174" shape-rendering="crispEdges">
<rect width="6" height="6" x="0" y="0" style="fill:#000"/><rect width="6" height="6" x="6" y="0" style="fill:#000"/><rect width="6" height="6" x="12" y="0" style="fill:#000"/><rect width="6" height="6" x="18" y="0" style="fill:#000"/><rect width="6" height="6" x="24" y="0" style="fill:#000"/><rect width="6" height="6" x="30" y="0" style="fill:#000"/><rect width="6" height="6" x="36" y="0" style="fill:#000"/><rect width="6" height="6" x="54" y="0" style="fill:#000"/><rect width="6" height="6" x="60" y="0" style="fill:#000"/><rect width="6" height="6" x="66" y="0" style="fill:#000"/><rect width="6" height="6" x="78" y="0" style="fill:#000"/><rect width="6" height="6" x="108" y="0" style="fill:#000"/><rect width="6" height="6" x="114" y="0" style="fill:#000"/><rect width="6" height="6" x="132" y="0" style="fill:#000"/><rect width="6" height="6" x="138" y="0" style="fill:#000"/><rect width="6" height="6" x="144" y="0" style="fill:#000"/><rect width="6" height="6" x="150" y="0" style="fill:#000"/><rect width="6" height="6" x="156" y="0" style="fill:#000"/><rect width="6" height="6" x="162" y="0" style="fill:#000"/><rect width="6" height="6" x="168" y="0" style="fill:#000"/>
<rect width="6" height="6" x="0" y="6" style="fill:#000"/><rect width="6" height="6" x="36" y="6" style="fill:#000"/><rect width="6" height="6" x="60" y="6" style="fill:#000"/><rect width="6" height="6" x="66" y="6" style="fill:#000"/><rect width="6" height="6" x="78" y="6" style="fill:#000"/><rect width="6" height="6" x="84" y="6" style="fill:#000"/><rect width="6" height="6" x="90" y="6" style="fill:#000"/><rect width="6" height="6" x="96" y="6" style="fill:#000"/><rect width="6" height="6" x="108" y="6" style="fill:#000"/><rect width="6" height="6" x="120" y="6" style="fill:#000"/><rect width="6" height="6" x="132" y="6" style="fill:#000"/><rect width="6" height="6" x="168" y="6" style="fill:#000"/>
<rect width="6" height="6" x="0" y="12" style="fill:#000"/><rect width="6" height="6" x="12" y="12" style="fill:#000"/><rect width="6" height="6" x="18" y="12" style="fill:#000"/><rect width="6" height="6" x="24" y="12" style="fill:#000"/><rect width="6" height="6" x="36" y="12" style="fill:#000"/><rect width="6" height="6" x="48" y="12" style="fill:#000"/><rect width="6" height="6" x="54" y="12" style="fill:#000"/><rect width="6" height="6" x="72" y="12" style="fill:#000"/><rect width="6" height="6" x="90" y="12" style="fill:#000"/><rect width="6" height="6" x="108" y="12" style="fill:#000"/><rect width="6" height="6" x="120" y="12" style="fill:#000"/><rect width="6" height="6" x="132" y="12" style="fill:#000"/><rect width="6" height="6" x="144" y="12" style="fill:#000"/><rect width="6" height="6" x="150" y="12" style="fill:#000"/><rect width="6" height="6" x="156" y="12" style="fill:#000"/><rect width="6" height="6" x="168" y="12" style="fill:#000"/>
<rect width="6" height="6" x="0" y="18" style="fill:#000"/><rect width="6" height="6" x="12" y="18" style="fill:#000"/><rect width="6" height="6" x="18" y="18" style="fill:#000"/><rect width="6" height="6" x="24" y="18" style="fill:#000"/><rect width="6" height="6" x="36" y="18" style="fill:#000"/><rect width="6" height="6" x="48" y="18" style="fill:#000"/><rect width="6" height="6" x="54" y="18" style="fill:#000"/><rect width="6" height="6" x="60" y="18" style="fill:#000"/><rect width="6" height="6" x="78" y="18" style="fill:#000"/><rect width="6" height="6" x="90" y="18" style="fill:#000"/><rect width="6" height="6" x="102" y="18" style="fill:#000"/><rect width="6" height="6" x="114" y="18" style="fill:#000"/><rect width="6" height="6" x="120" y="18" style="fill:#000"/><rect width="6" height="6" x="132" y="18" style="fill:#000"/><rect width="6" height="6" x="144" y="18" style="fill:#000"/><rect width="6" height="6" x="150" y="18" style="fill:#000"/><rect width="6" height="6" x="156" y="18" style="fill:#000"/><rect width="6" height="6" x="168" y="18" style="fill:#000"/>
<rect width="6" height="6" x="0" y="24" style="fill:#000"/><rect width="6" height="6" x="12" y="24" style="fill:#000"/><rect width="6" height="6" x="18" y="24" style="fill:#000"/><rect width="6" height="6" x="24" y="24" style="fill:#000"/><rect width="6" height="6" x="36" y="24" style="fill:#000"/><rect width="6" height="6" x="60" y="24" style="fill:#000"/><rect width="6" height="6" x="66" y="24" style="fill:#000"/><rect width="6" height="6" x="72" y="24" style="fill:#000"/><rect width="6" height="6" x="78" y="24" style="fill:#000"/><rect width="6" height="6" x="84" y="24" style="fill:#000"/><rect width="6" height="6" x="90" y="24" style="fill:#000"/><rect width="6" height="6" x="96" y="24" style="fill:#000"/><rect width="6" height="6" x="102" y="24" style="fill:#000"/><rect width="6" height="6" x="114" y="24" style="fill:#000"/><rect width="6" height="6" x="132" y="24" style="fill:#000"/><rect width="6" height="6" x="144" y="24" style="fill:#000"/><rect width="6" height="6" x="150" y="24" style="fill:#000"/><rect width="6" height="6" x="156" y="24" style="fill:#000"/><rect width="6" height="6" x="168" y="24" style="fill:#000"/>
<rect width="6" height="6" x="0" y="30" style="fill:#000"/><rect width="6" height="6" x="36" y="30" style="fill:#000"/><rect width="6" height="6" x="60" y="30" style="fill:#000"/><rect width="6" height="6" x="66" y="30" style="fill:#000"/><rect width="6" height="6" x="90" y="30" style="fill:#000"/><rect width="6" height="6" x="102" y="30" style="fill:#000"/><rect width="6" height="6" x="108" y="30" style="fill:#000"/><rect width="6" height="6" x="132" y="30" style="fill:#000"/><rect width="6" height="6" x="168" y="30" style="fill:#000"/>
<rect width="6" height="6" x="0" y="36" style="fill:#000"/><rect width="6" height="6" x="6" y="36" style="fill:#000"/><rect width="6" height="6" x="12" y="36" style="fill:#000"/><rect width="6" height="6" x="18" y="36" style="fill:#000"/><rect width="6" height="6" x="24" y="36" style="fill:#000"/><rect width="6" height="6" x="30" y="36" style="fill:#000"/><rect width="6" height="6" x="36" y="36" style="fill:#000"/><rect width="6" height="6" x="48" y="36" style="fill:#000"/><rect width="6" height="6" x="60" y="36" style="fill:#000"/><rect width="6" height="6" x="72" y="36" style="fill:#000"/><rect width="6" height="6" x="84" y="36" style="fill:#000"/><rect width="6" height="6" x="96" y="36" style="fill:#000"/><rect width="6" height="6" x="108" y="36" style="fill:#000"/><rect width="6" height="6" x="120" y="36" style="fill:#000"/><rect width="6" height="6" x="132" y="36" style="fill:#000"/><rect width="6" height="6" x="138" y="36" style="fill:#000"/><rect width="6" height="6" x="144" y="36" style="fill:#000"/><rect width="6" height="6" x="150" y="36" style="fill:#000"/><rect width="6" height="6" x="156" y="36" style="fill:#000"/><rect width="6" height="6" x="162" y="36" style="fill:#000"/><rect width="6" height="6" x="168" y="36" style="fill:#000"/>
<rect width="6" height="6" x="54" y="42" style="fill:#000"/><rect width="6" height="6" x="72" y="42" style="fill:#000"/><rect width="6" height="6" x="78" y="42" style="fill:#000"/><rect width="6" height="6" x="84" y="42" style="fill:#000"/><rect width="6" height="6" x="114" y="42" style="fill:#000"/>
<rect width="6" height="6" x="18" y="48" style="fill:#000"/><rect width="6" height="6" x="24" y="48" style="fill:#000"/><rect width="6" height="6" x="36" y="48" style="fill:#000"/><rect width="6" height="6" x="42" y="48" style="fill:#000"/><rect width="6" height="6" x="54" y="48" style="fill:#000"/><rect width="6" height="6" x="72" y="48" style="fill:#000"/><rect width="6" height="6" x="90" y="48" style="fill:#000"/><rect width="6" height="6" x="96" y="48" style="fill:#000"/><rect width="6" height="6" x="108" y="48" style="fill:#000"/><rect width="6" height="6" x="114" y="48" style="fill:#000"/><rect width="6" height="6" x="120" y="48" style="fill:#000"/><rect width="6" height="6" x="150" y="48" style="fill:#000"/><rect width="6" height="6" x="156" y="48" style="fill:#000"/>
<rect width="6" height="6" x="12" y="54" style="fill:#000"/><rect width="6" height="6" x="18" y="54" style="fill:#000"/><rect width="6" height="6" x="24" y="54" style="fill:#000"/><rect width="6" height="6" x="30" y="54" style="fill:#000"/><rect width="6" height="6" x="54" y="54" style="fill:#000"/><rect width="6" height="6" x="72" y="54" style="fill:#000"/><rect width="6" height="6" x="78" y="54" style="fill:#000"/><rect width="6" height="6" x="84" y="54" style="fill:#000"/><rect width="6" height="6" x="96" y="54" style="fill:#000"/><rect width="6" height="6" x="120" y="54" style="fill:#000"/><rect width="6" height="6" x="132" y="54" style="fill:#000"/><rect width="6" height="6" x="144" y="54" style="fill:#000"/><rect width="6" height="6" x="150" y="54" style="fill:#000"/><rect width="6" height="6" x="162" y="54" style="fill:#000"/>
<rect width="6" height="6" x="6" y="60" style="fill:#000"/><rect width="6" height="6" x="18" y="60" style="fill:#000"/><rect width="6" height="6" x="36" y="60" style="fill:#000"/><rect width="6" height="6" x="48" y="60" style="fill:#000"/><rect width="6" height="6" x="78" y="60" style="fill:#000"/><rect width="6" height="6" x="108" y="60" style="fill:#000"/><rect width="6" height="6" x="132" y="60" style="fill:#000"/>
<rect width="6" height="6" x="6" y="66" style="fill:#000"/><rect width="6" height="6" x="12" y="66" style="fill:#000"/><rect width="6" height="6" x="18" y="66" style="fill:#000"/><rect width="6" height="6" x="30" y="66" style="fill:#000"/><rect width="6" height="6" x="42" y="66" style="fill:#000"/><rect width="6" height="6" x="48" y="66" style="fill:#000"/><rect width="6" height="6" x="54" y="66" style="fill:#000"/><rect width="6" height="6" x="72" y="66" style="fill:#000"/><rect width="6" height="6" x="78" y="66" style="fill:#000"/><rect width="6" height="6" x="84" y="66" style="fill:#000"/><rect width="6" height="6" x="96" y="66" style="fill:#000"/><rect width="6" height="6" x="108" y="66" style="fill:#000"/><rect width="6" height="6" x="126" y="66" style="fill:#000"/><rect width="6" height="6" x="150" y="66" style="fill:#000"/><rect width="6" height="6" x="168" y="66" style="fill:#000"/>
<rect width="6" height="6" x="24" y="72" style="fill:#000"/><rect width="6" height="6" x="36" y="72" style="fill:#000"/><rect width="6" height="6" x="42" y="72" style="fill:#000"/><rect width="6" height="6" x="48" y="72" style="fill:#000"/><rect width="6" height="6" x="54" y="72" style="fill:#000"/><rect width="6" height="6" x="60" y="72" style="fill:#000"/><rect width="6" height="6" x="78" y="72" style="fill:#000"/><rect width="6" height="6" x="90" y="72" style="fill:#000"/><rect width="6" height="6" x="102" y="72" style="fill:#000"/><rect width="6" height="6" x="114" y="72" style="fill:#000"/><rect width="6" height="6" x="126" y="72" style="fill:#000"/><rect width="6" height="6" x="132" y="72" style="fill:#000"/><rect width="6" height="6" x="138" y="72" style="fill:#000"/><rect width="6" height="6" x="150" y="72" style="fill:#000"/><rect width="6" height="6" x="162" y="72" style="fill:#000"/>
<rect width="6" height="6" x="6" y="78" style="fill:#000"/><rect width="6" height="6" x="12" y="78" style="fill:#000"/><rect width="6" height="6" x="24" y="78" style="fill:#000"/><rect width="6" height="6" x="30" y="78" style="fill:#000"/><rect width="6" height="6" x="78" y="78" style="fill:#000"/><rect width="6" height="6" x="84" y="78" style="fill:#000"/><rect width="6" height="6" x="102" y="78" style="fill:#000"/><rect width="6" height="6" x="132" y="78" style="fill:#000"/><rect width="6" height="6" x="144" y="78" style="fill:#000"/><rect width="6" height="6" x="156" y="78" style="fill:#000"/><rect width="6" height="6" x="168" y="78" style="fill:#000"/>
<rect width="6" height="6" x="0" y="84" style="fill:#000"/><rect width="6" height="6" x="12" y="84" style="fill:#000"/><rect width="6" height="6" x="18" y="84" style="fill:#000"/><rect width="6" height="6" x="30" y="84" style="fill:#000"/><rect width="6" height="6" x="36" y="84" style="fill:#000"/><rect width="6" height="6" x="42" y="84" style="fill:#000"/><rect width="6" height="6" x="48" y="84" style="fill:#000"/><rect width="6" height="6" x="72" y="84" style="fill:#000"/><rect width="6" height="6" x="78" y="84" style="fill:#000"/><rect width="6" height="6" x="108" y="84" style="fill:#000"/><rect width="6" height="6" x="114" y="84" style="fill:#000"/><rect width="6" height="6" x="120" y="84" style="fill:#000"/><rect width="6" height="6" x="150" y="84" style="fill:#000"/><rect width="6" height="6" x="162" y="84" style="fill:#000"/><rect width="6" height="6" x="168" y="84" style="fill:#000"/>
<rect width="6" height="6" x="0" y="90" style="fill:#000"/><rect width="6" height="6" x="12" y="90" style="fill:#000"/><rect width="6" height="6" x="30" y="90" style="fill:#000"/><rect width="6" height="6" x="60" y="90" style="fill:#000"/><rect width="6" height="6" x="78" y="90" style="fill:#000"/><rect width="6" height="6" x="102" y="90" style="fill:#000"/><rect width="6" height="6" x="108" y="90" style="fill:#000"/><rect width="6" height="6" x="120" y="90" style="fill:#000"/><rect width="6" height="6" x="150" y="90" style="fill:#000"/><rect width="6" height="6" x="156" y="90" style="fill:#000"/>
<rect width="6" height="6" x="18" y="96" style="fill:#000"/><rect width="6" height="6" x="24" y="96" style="fill:#000"/><rect width="6" height="6" x="30" y="96" style="fill:#000"/><rect width="6" height="6" x="36" y="96" style="fill:#000"/><rect width="6" height="6" x="48" y="96" style="fill:#000"/><rect width="6" height="6" x="60" y="96" style="fill:#000"/><rect width="6" height="6" x="72" y="96" style="fill:#000"/><rect width="6" height="6" x="78" y="96" style="fill:#000"/><rect width="6" height="6" x="84" y="96" style="fill:#000"/><rect width="6" height="6" x="108" y="96" style="fill:#000"/><rect width="6" height="6" x="114" y="96" style="fill:#000"/><rect width="6" height="6" x="120" y="96" style="fill:#000"/><rect width="6" height="6" x="132" y="96" style="fill:#000"/><rect width="6" height="6" x="138" y="96" style="fill:#000"/><rect width="6" height="6" x="150" y="96" style="fill:#000"/><rect width="6" height="6" x="162" y="96" style="fill:#000"/>
<rect width="6" height="6" x="0" y="102" style="fill:#000"/><rect width="6" height="6" x="6" y="102" style="fill:#000"/><rect width="6" height="6" x="12" y="102" style="fill:#000"/><rect width="6" height="6" x="18" y="102" style="fill:#000"/><rect width="6" height="6" x="54" y="102" style="fill:#000"/><rect width="6" height="6" x="66" y="102" style="fill:#000"/><rect width="6" height="6" x="96" y="102" style="fill:#000"/><rect width="6" height="6" x="102" y="102" style="fill:#000"/><rect width="6" height="6" x="108" y="102" style="fill:#000"/><rect width="6" height="6" x="120" y="102" style="fill:#000"/><rect width="6" height="6" x="132" y="102" style="fill:#000"/><rect width="6" height="6" x="138" y="102" style="fill:#000"/><rect width="6" height="6" x="144" y="102" style="fill:#000"/>
<rect width="6" height="6" x="0" y="108" style="fill:#000"/><rect width="6" height="6" x="6" y="108" style="fill:#000"/><rect width="6" height="6" x="18" y="108" style="fill:#000"/><rect width="6" height="6" x="24" y="108" style="fill:#000"/><rect width="6" height="6" x="36" y="108" style="fill:#000"/><rect width="6" height="6" x="60" y="108" style="fill:#000"/><rect width="6" height="6" x="72" y="108" style="fill:#000"/><rect width="6" height="6" x="90" y="108" style="fill:#000"/><rect width="6" height="6" x="120" y="108" style="fill:#000"/><rect width="6" height="6" x="144" y="108" style="fill:#000"/><rect width="6" height="6" x="168" y="108" style="fill:#000"/>
<rect width="6" height="6" x="0" y="114" style="fill:#000"/><rect width="6" height="6" x="6" y="114" style="fill:#000"/><rect width="6" height="6" x="12" y="114" style="fill:#000"/><rect width="6" height="6" x="18" y="114" style="fill:#000"/><rect width="6" height="6" x="24" y="114" style="fill:#000"/><rect width="6" height="6" x="30" y="114" style="fill:#000"/><rect width="6" height="6" x="42" y="114" style="fill:#000"/><rect width="6" height="6" x="48" y="114" style="fill:#000"/><rect width="6" height="6" x="60" y="114" style="fill:#000"/><rect width="6" height="6" x="72" y="114" style="fill:#000"/><rect width="6" height="6" x="78" y="114" style="fill:#000"/><rect width="6" height="6" x="90" y="114" style="fill:#000"/><rect width="6" height="6" x="126" y="114" style="fill:#000"/><rect width="6" height="6" x="132" y="114" style="fill:#000"/><rect width="6" height="6" x="138" y="114" style="fill:#000"/><rect width="6" height="6" x="156" y="114" style="fill:#000"/><rect width="6" height="6" x="168" y="114" style="fill:#000"/>
<rect width="6" height="6" x="0" y="120" style="fill:#000"/><rect width="6" height="6" x="6" y="120" style="fill:#000"/><rect width="6" height="6" x="12" y="120" style="fill:#000"/><rect width="6" height="6" x="30" y="120" style="fill:#000"/><rect width="6" height="6" x="36" y="120" style="fill:#000"/><rect width="6" height="6" x="60" y="120" style="fill:#000"/><rect width="6" height="6" x="66" y="120" style="fill:#000"/><rect width="6" height="6" x="72" y="120" style="fill:#000"/><rect width="6" height="6" x="108" y="120" style="fill:#000"/><rect width="6" height="6" x="120" y="120" style="fill:#000"/><rect width="6" height="6" x="126" y="120" style="fill:#000"/><rect width="6" height="6" x="132" y="120" style="fill:#000"/><rect width="6" height="6" x="138" y="120" style="fill:#000"/><rect width="6" height="6" x="144" y="120" style="fill:#000"/><rect width="6" height="6" x="150" y="120" style="fill:#000"/><rect width="6" height="6" x="156" y="120" style="fill:#000"/><rect width="6" height="6" x="162" y="120" style="fill:#000"/><rect width="6" height="6" x="168" y="120" style="fill:#000"/>
<rect width="6" height="6" x="48" y="126" style="fill:#000"/><rect width="6" height="6" x="60" y="126" style="fill:#000"/><rect width="6" height="6" x="78" y="126" style="fill:#000"/><rect width="6" height="6" x="84" y="126" style="fill:#000"/><rect width="6" height="6" x="120" y="126" style="fill:#000"/><rect width="6" height="6" x="144" y="126" style="fill:#000"/><rect width="6" height="6" x="150" y="126" style="fill:#000"/><rect width="6" height="6" x="156" y="126" style="fill:#000"/>
<rect width="6" height="6" x="0" y="132" style="fill:#000"/><rect width="6" height="6" x="6" y="132" style="fill:#000"/><rect width="6" height="6" x="12" y="132" style="fill:#000"/><rect width="6" height="6" x="18" y="132" style="fill:#000"/><rect width="6" height="6" x="24" y="132" style="fill:#000"/><rect width="6" height="6" x="30" y="132" style="fill:#000"/><rect width="6" height="6" x="36" y="132" style="fill:#000"/><rect width="6" height="6" x="48" y="132" style="fill:#000"/><rect width="6" height="6" x="66" y="132" style="fill:#000"/><rect width="6" height="6" x="72" y="132" style="fill:#000"/><rect width="6" height="6" x="114" y="132" style="fill:#000"/><rect width="6" height="6" x="120" y="132" style="fill:#000"/><rect width="6" height="6" x="132" y="132" style="fill:#000"/><rect width="6" height="6" x="144" y="132" style="fill:#000"/><rect width="6" height="6" x="156" y="132" style="fill:#000"/>
<rect width="6" height="6" x="0" y="138" style="fill:#000"/><rect width="6" height="6" x="36" y="138" style="fill:#000"/><rect width="6" height="6" x="60" y="138" style="fill:#000"/><rect width="6" height="6" x="66" y="138" style="fill:#000"/><rect width="6" height="6" x="72" y="138" style="fill:#000"/><rect width="6" height="6" x="78" y="138" style="fill:#000"/><rect width="6" height="6" x="96" y="138" style="fill:#000"/><rect width="6" height="6" x="108" y="138" style="fill:#000"/><rect width="6" height="6" x="114" y="138" style="fill:#000"/><rect width="6" height="6" x="120" y="138" style="fill:#000"/><rect width="6" height="6" x="144" y="138" style="fill:#000"/><rect width="6" height="6" x="150" y="138" style="fill:#000"/><rect width="6" height="6" x="162" y="138" style="fill:#000"/><rect width="6" height="6" x="168" y="138" style="fill:#000"/>
<rect width="6" height="6" x="0" y="144" style="fill:#000"/><rect width="6" height="6" x="12" y="144" style="fill:#000"/><rect width="6" height="6" x="18" y="144" style="fill:#000"/><rect width="6" height="6" x="24" y="144" style="fill:#000"/><rect width="6" height="6" x="36" y="144" style="fill:#000"/><rect width="6" height="6" x="48" y="144" style="fill:#000"/><rect width="6" height="6" x="54" y="144" style="fill:#000"/><rect width="6" height="6" x="72" y="144" style="fill:#000"/><rect width="6" height="6" x="102" y="144" style="fill:#000"/><rect width="6" height="6" x="108" y="144" style="fill:#000"/><rect width="6" height="6" x="114" y="144" style="fill:#000"/><rect width="6" height="6" x="120" y="144" style="fill:#000"/><rect width="6" height="6" x="126" y="144" style="fill:#000"/><rect width="6" height="6" x="132" y="144" style="fill:#000"/><rect width="6" height="6" x="138" y="144" style="fill:#000"/><rect width="6" height="6" x="144" y="144" style="fill:#000"/><rect width="6" height="6" x="168" y="144" style="fill:#000"/>
<rect width="6" height="6" x="0" y="150" style="fill:#000"/><rect width="6" height="6" x="12" y="150" style="fill:#000"/><rect width="6" height="6" x="18" y="150" style="fill:#000"/><rect width="6" height="6" x="24" y="150" style="fill:#000"/><rect width="6" height="6" x="36" y="150" style="fill:#000"/><rect width="6" height="6" x="48" y="150" style="fill:#000"/><rect width="6" height="6" x="60" y="150" style="fill:#000"/><rect width="6" height="6" x="66" y="150" style="fill:#000"/><rect width="6" height="6" x="72" y="150" style="fill:#000"/><rect width="6" height="6" x="78" y="150" style="fill:#000"/><rect width="6" height="6" x="84" y="150" style="fill:#000"/><rect width="6" height="6" x="96" y="150" style="fill:#000"/><rect width="6" height="6" x="126" y="150" style="fill:#000"/><rect width="6" height="6" x="138" y="150" style="fill:#000"/><rect width="6" height="6" x="162" y="150" style="fill:#000"/>
<rect width="6" height="6" x="0" y="156" style="fill:#000"/><rect width="6" height="6" x="12" y="156" style="fill:#000"/><rect width="6" height="6" x="18" y="156" style="fill:#000"/><rect width="6" height="6" x="24" y="156" style="fill:#000"/><rect width="6" height="6" x="36" y="156" style="fill:#000"/><rect width="6" height="6" x="60" y="156" style="fill:#000"/><rect width="6" height="6" x="66" y="156" style="fill:#000"/><rect width="6" height="6" x="72" y="156" style="fill:#000"/><rect width="6" height="6" x="90" y="156" style="fill:#000"/><rect width="6" height="6" x="126" y="156" style="fill:#000"/><rect width="6" height="6" x="144" y="156" style="fill:#000"/><rect width="6" height="6" x="156" y="156" style="fill:#000"/><rect width="6" height="6" x="162" y="156" style="fill:#000"/><rect width="6" height="6" x="168" y="156" style="fill:#000"/>
<rect width="6" height="6" x="0" y="162" style="fill:#000"/><rect width="6" height="6" x="36" y="162" style="fill:#000"/><rect width="6" height="6" x="54" y="162" style="fill:#000"/><rect width="6" height="6" x="72" y="162" style="fill:#000"/><rect width="6" height="6" x="84" y="162" style="fill:#000"/><rect width="6" height="6" x="114" y="162" style="fill:#000"/><rect width="6" height="6" x="120" y="162" style="fill:#000"/><rect width="6" height="6" x="132" y="162" style="fill:#000"/><rect width="6" height="6" x="144" y="162" style="fill:#000"/><rect width="6" height="6" x="150" y="162" style="fill:#000"/><rect width="6" height="6" x="156" y="162" style="fill:#000"/><rect width="6" height="6" x="168" y="162" style="fill:#000"/>
<rect width="6" height="6" x="0" y="168" style="fill:#000"/><rect width="6" height="6" x="6" y="168" style="fill:#000"/><rect width="6" height="6" x="12" y="168" style="fill:#000"/><rect width="6" height="6" x="18" y="168" style="fill:#000"/><rect width="6" height="6" x="24" y="168" style="fill:#000"/><rect width="6" height="6" x="30" y="168" style="fill:#000"/><rect width="6" height="6" x="36" y="168" style="fill:#000"/><rect width="6" height="6" x="54" y="168" style="fill:#000"/><rect width="6" height="6" x="84" y="168" style="fill:#000"/><rect width="6" height="6" x="96" y="168" style="fill:#000"/><rect width="6" height="6" x="108" y="168" style="fill:#000"/><rect width="6" height="6" x="120" y="168" style="fill:#000"/><rect width="6" height="6" x="138" y="168" style="fill:#000"/><rect width="6" height="6" x="144" y="168" style="fill:#000"/>
</svg>
